<svg width="40" height="40" viewBox="0 0 40 40" fill="none" xmlns="http://www.w3.org/2000/svg">
<path d="M25.4686 5.39062H14.0558C13.248 5.39153 12.4735 5.71284 11.9023 6.28404C11.3311 6.85524 11.0098 7.6297 11.0089 8.4375V31.5625C11.0098 32.3703 11.3311 33.1448 11.9023 33.716C12.4735 34.2872 13.248 34.6085 14.0558 34.6094H25.4686C26.2764 34.6085 27.0509 34.2872 27.6221 33.716C28.1933 33.1448 28.5146 32.3703 28.5155 31.5625V8.4375C28.5146 7.6297 28.1933 6.85524 27.6221 6.28404C27.0509 5.71284 26.2764 5.39153 25.4686 5.39062ZM23.1923 6.48438V7.19125C23.1921 7.33403 23.1352 7.47089 23.0343 7.57182C22.9333 7.67275 22.7964 7.72952 22.6536 7.72969H16.8723C16.7296 7.72952 16.5927 7.67274 16.4918 7.5718C16.3909 7.47086 16.3341 7.334 16.3339 7.19125V6.48438H23.1923ZM27.4214 31.5625C27.4208 32.0803 27.2149 32.5768 26.8487 32.9429C26.4826 33.3091 25.9861 33.515 25.4683 33.5156H14.0558C13.538 33.515 13.0415 33.3091 12.6754 32.9429C12.3092 32.5768 12.1032 32.0803 12.1027 31.5625V8.4375C12.1032 7.91968 12.3092 7.42323 12.6754 7.05707C13.0415 6.69091 13.538 6.48495 14.0558 6.48438H15.2389V7.19125C15.2394 7.62398 15.4115 8.03885 15.7175 8.34483C16.0235 8.65082 16.4384 8.82294 16.8711 8.82344H22.6523C23.0851 8.82294 23.5 8.65083 23.806 8.34485C24.1121 8.03887 24.2843 7.62401 24.2848 7.19125V6.48438H25.4686C25.9864 6.48504 26.4827 6.69103 26.8488 7.05718C27.2149 7.42333 27.4208 7.91973 27.4214 8.4375V31.5625Z" fill="#707070"/>
<path d="M23.125 30.9116H16.3997C16.2546 30.9116 16.1155 30.9692 16.013 31.0717C15.9104 31.1743 15.8528 31.3134 15.8528 31.4584C15.8528 31.6035 15.9104 31.7426 16.013 31.8451C16.1155 31.9477 16.2546 32.0053 16.3997 32.0053H23.125C23.27 32.0053 23.4091 31.9477 23.5117 31.8451C23.6142 31.7426 23.6718 31.6035 23.6718 31.4584C23.6718 31.3134 23.6142 31.1743 23.5117 31.0717C23.4091 30.9692 23.27 30.9116 23.125 30.9116Z" fill="#707070"/>
</svg>
